<mxfile host="app.diagrams.net" agent="Mozilla/5.0 (Windows NT 10.0; Win64; x64) AppleWebKit/537.36 (KHTML, like Gecko) Chrome/139.0.0.0 Safari/537.36" version="28.1.1">
  <diagram name="Page-1" id="-DcNknwPtWSr3oIWHymv">
    <mxGraphModel dx="2100" dy="2358" grid="1" gridSize="10" guides="1" tooltips="1" connect="0" arrows="1" fold="1" page="1" pageScale="1" pageWidth="827" pageHeight="1169" math="0" shadow="0">
      <root>
        <mxCell id="0" />
        <mxCell id="1" parent="0" />
        <mxCell id="PrnUvY4nMbRuKB_2YOgd-4" value="&lt;h2&gt;Manage Student Details&lt;/h2&gt;" style="rounded=0;whiteSpace=wrap;html=1;fontSize=20;fillColor=#fa6800;fontColor=#000000;strokeColor=#C73500;" vertex="1" parent="1">
          <mxGeometry x="1280" y="-200" width="330" height="130" as="geometry" />
        </mxCell>
        <mxCell id="PrnUvY4nMbRuKB_2YOgd-5" value="&lt;h2&gt;Manage Class Details&lt;/h2&gt;" style="rounded=0;whiteSpace=wrap;html=1;fontSize=20;fillColor=#fa6800;fontColor=#000000;strokeColor=#C73500;" vertex="1" parent="1">
          <mxGeometry x="1280" y="-430" width="340" height="120" as="geometry" />
        </mxCell>
        <mxCell id="PrnUvY4nMbRuKB_2YOgd-6" value="&lt;h2&gt;Manage Attendence Details&lt;/h2&gt;" style="rounded=0;whiteSpace=wrap;html=1;fontSize=20;verticalAlign=middle;fillColor=#fa6800;fontColor=#000000;strokeColor=#C73500;" vertex="1" parent="1">
          <mxGeometry x="1280" y="-680" width="355" height="140" as="geometry" />
        </mxCell>
        <mxCell id="PrnUvY4nMbRuKB_2YOgd-8" value="&lt;h2&gt;Manage Fees Details&lt;/h2&gt;" style="rounded=0;whiteSpace=wrap;html=1;fontSize=20;fillColor=#fa6800;fontColor=#000000;strokeColor=#C73500;" vertex="1" parent="1">
          <mxGeometry x="1280" y="30" width="340" height="130" as="geometry" />
        </mxCell>
        <mxCell id="PrnUvY4nMbRuKB_2YOgd-10" value="&lt;h2&gt;Admin&lt;/h2&gt;" style="rounded=1;whiteSpace=wrap;html=1;fontSize=20;fontFamily=Times New Roman;fillColor=#fa6800;fontColor=#000000;strokeColor=#C73500;" vertex="1" parent="1">
          <mxGeometry x="40" y="-850" width="280" height="130" as="geometry" />
        </mxCell>
        <mxCell id="PrnUvY4nMbRuKB_2YOgd-11" value="&lt;h2&gt;Login to system&lt;/h2&gt;" style="ellipse;whiteSpace=wrap;html=1;aspect=fixed;fontSize=20;fontFamily=Times New Roman;fillColor=#fa6800;fontColor=#000000;strokeColor=#C73500;" vertex="1" parent="1">
          <mxGeometry x="440" y="-850" width="210" height="210" as="geometry" />
        </mxCell>
        <mxCell id="PrnUvY4nMbRuKB_2YOgd-12" value="&lt;h2&gt;Check Roles of Acess&lt;/h2&gt;" style="ellipse;whiteSpace=wrap;html=1;aspect=fixed;fontSize=20;fontFamily=Times New Roman;fillColor=#fa6800;fontColor=#000000;strokeColor=#C73500;" vertex="1" parent="1">
          <mxGeometry x="740" y="-830" width="190" height="190" as="geometry" />
        </mxCell>
        <mxCell id="PrnUvY4nMbRuKB_2YOgd-13" value="&lt;h2&gt;Forgot Password&lt;/h2&gt;" style="ellipse;whiteSpace=wrap;html=1;aspect=fixed;fontSize=20;fillColor=#fa6800;fontColor=#000000;strokeColor=#C73500;" vertex="1" parent="1">
          <mxGeometry x="30" y="-500" width="230" height="230" as="geometry" />
        </mxCell>
        <mxCell id="PrnUvY4nMbRuKB_2YOgd-14" value="&lt;h2&gt;Check Credentials&lt;/h2&gt;" style="ellipse;whiteSpace=wrap;html=1;aspect=fixed;fontSize=20;fontFamily=Times New Roman;fillColor=#fa6800;fontColor=#000000;strokeColor=#C73500;" vertex="1" parent="1">
          <mxGeometry x="414" y="-500" width="260" height="260" as="geometry" />
        </mxCell>
        <mxCell id="PrnUvY4nMbRuKB_2YOgd-15" value="&lt;h2&gt;Manage Modules&lt;/h2&gt;" style="ellipse;whiteSpace=wrap;html=1;aspect=fixed;fontSize=20;fontFamily=Times New Roman;fillColor=#fa6800;fontColor=#000000;strokeColor=#C73500;" vertex="1" parent="1">
          <mxGeometry x="710" y="-470" width="215" height="215" as="geometry" />
        </mxCell>
        <mxCell id="PrnUvY4nMbRuKB_2YOgd-23" value="&lt;h2&gt;Manage Report&lt;/h2&gt;" style="rounded=0;whiteSpace=wrap;html=1;fontSize=20;fillColor=#fa6800;fontColor=#000000;strokeColor=#C73500;" vertex="1" parent="1">
          <mxGeometry x="1280" y="530" width="340" height="155" as="geometry" />
        </mxCell>
        <mxCell id="PrnUvY4nMbRuKB_2YOgd-24" value="&lt;h2&gt;Manage Teacher Profile&lt;/h2&gt;" style="rounded=0;whiteSpace=wrap;html=1;fontSize=20;fillColor=#fa6800;fontColor=#000000;strokeColor=#C73500;" vertex="1" parent="1">
          <mxGeometry x="1280" y="270" width="340" height="150" as="geometry" />
        </mxCell>
        <mxCell id="PrnUvY4nMbRuKB_2YOgd-28" value="" style="endArrow=classic;html=1;rounded=0;exitX=0.391;exitY=1.028;exitDx=0;exitDy=0;exitPerimeter=0;" edge="1" parent="1" source="PrnUvY4nMbRuKB_2YOgd-10">
          <mxGeometry width="50" height="50" relative="1" as="geometry">
            <mxPoint x="610" y="-300" as="sourcePoint" />
            <mxPoint x="145" y="-520" as="targetPoint" />
          </mxGeometry>
        </mxCell>
        <mxCell id="PrnUvY4nMbRuKB_2YOgd-31" value="" style="endArrow=classic;html=1;rounded=0;exitX=0.471;exitY=0.973;exitDx=0;exitDy=0;entryX=0.5;entryY=0;entryDx=0;entryDy=0;exitPerimeter=0;" edge="1" parent="1" source="PrnUvY4nMbRuKB_2YOgd-5" target="PrnUvY4nMbRuKB_2YOgd-4">
          <mxGeometry width="50" height="50" relative="1" as="geometry">
            <mxPoint x="970" y="-520" as="sourcePoint" />
            <mxPoint x="1020" y="-570" as="targetPoint" />
          </mxGeometry>
        </mxCell>
        <mxCell id="PrnUvY4nMbRuKB_2YOgd-33" value="" style="endArrow=classic;html=1;rounded=0;" edge="1" parent="1">
          <mxGeometry width="50" height="50" relative="1" as="geometry">
            <mxPoint x="1440" y="-803" as="sourcePoint" />
            <mxPoint x="1440" y="-690" as="targetPoint" />
            <Array as="points" />
          </mxGeometry>
        </mxCell>
        <mxCell id="PrnUvY4nMbRuKB_2YOgd-35" value="" style="endArrow=classic;html=1;rounded=0;entryX=0.5;entryY=0;entryDx=0;entryDy=0;exitX=0.5;exitY=1;exitDx=0;exitDy=0;" edge="1" parent="1" source="PrnUvY4nMbRuKB_2YOgd-4" target="PrnUvY4nMbRuKB_2YOgd-8">
          <mxGeometry width="50" height="50" relative="1" as="geometry">
            <mxPoint x="1390" y="-10" as="sourcePoint" />
            <mxPoint x="1060" y="280" as="targetPoint" />
          </mxGeometry>
        </mxCell>
        <mxCell id="PrnUvY4nMbRuKB_2YOgd-36" value="" style="endArrow=classic;html=1;rounded=0;exitX=0.5;exitY=1;exitDx=0;exitDy=0;entryX=0.5;entryY=0;entryDx=0;entryDy=0;" edge="1" parent="1" source="PrnUvY4nMbRuKB_2YOgd-8" target="PrnUvY4nMbRuKB_2YOgd-24">
          <mxGeometry width="50" height="50" relative="1" as="geometry">
            <mxPoint x="970" y="190" as="sourcePoint" />
            <mxPoint x="1020" y="140" as="targetPoint" />
          </mxGeometry>
        </mxCell>
        <mxCell id="PrnUvY4nMbRuKB_2YOgd-43" value="" style="endArrow=classic;html=1;rounded=0;entryX=0;entryY=0.5;entryDx=0;entryDy=0;" edge="1" parent="1" source="PrnUvY4nMbRuKB_2YOgd-15">
          <mxGeometry width="50" height="50" relative="1" as="geometry">
            <mxPoint x="660" y="-490" as="sourcePoint" />
            <mxPoint x="1270" y="-890" as="targetPoint" />
          </mxGeometry>
        </mxCell>
        <mxCell id="PrnUvY4nMbRuKB_2YOgd-44" value="" style="endArrow=classic;html=1;rounded=0;entryX=0;entryY=0.25;entryDx=0;entryDy=0;" edge="1" parent="1" target="PrnUvY4nMbRuKB_2YOgd-6">
          <mxGeometry width="50" height="50" relative="1" as="geometry">
            <mxPoint x="920" y="-410" as="sourcePoint" />
            <mxPoint x="1250" y="-620" as="targetPoint" />
          </mxGeometry>
        </mxCell>
        <mxCell id="PrnUvY4nMbRuKB_2YOgd-45" value="" style="endArrow=classic;html=1;rounded=0;" edge="1" parent="1">
          <mxGeometry width="50" height="50" relative="1" as="geometry">
            <mxPoint x="930" y="-380" as="sourcePoint" />
            <mxPoint x="1270" y="-380" as="targetPoint" />
          </mxGeometry>
        </mxCell>
        <mxCell id="PrnUvY4nMbRuKB_2YOgd-47" value="" style="endArrow=classic;html=1;rounded=0;entryX=0;entryY=0.5;entryDx=0;entryDy=0;" edge="1" parent="1" target="PrnUvY4nMbRuKB_2YOgd-4">
          <mxGeometry width="50" height="50" relative="1" as="geometry">
            <mxPoint x="930" y="-340" as="sourcePoint" />
            <mxPoint x="770" y="-140" as="targetPoint" />
          </mxGeometry>
        </mxCell>
        <mxCell id="PrnUvY4nMbRuKB_2YOgd-50" value="" style="endArrow=classic;html=1;rounded=0;entryX=0;entryY=0.5;entryDx=0;entryDy=0;" edge="1" parent="1" source="PrnUvY4nMbRuKB_2YOgd-15" target="PrnUvY4nMbRuKB_2YOgd-8">
          <mxGeometry width="50" height="50" relative="1" as="geometry">
            <mxPoint x="720" y="-90" as="sourcePoint" />
            <mxPoint x="1280" y="100" as="targetPoint" />
          </mxGeometry>
        </mxCell>
        <mxCell id="PrnUvY4nMbRuKB_2YOgd-51" value="" style="endArrow=classic;html=1;rounded=0;entryX=0;entryY=0.5;entryDx=0;entryDy=0;" edge="1" parent="1" source="PrnUvY4nMbRuKB_2YOgd-15" target="PrnUvY4nMbRuKB_2YOgd-24">
          <mxGeometry width="50" height="50" relative="1" as="geometry">
            <mxPoint x="770" y="140" as="sourcePoint" />
            <mxPoint x="820" y="90" as="targetPoint" />
          </mxGeometry>
        </mxCell>
        <mxCell id="PrnUvY4nMbRuKB_2YOgd-52" value="" style="endArrow=classic;html=1;rounded=0;entryX=0;entryY=0.5;entryDx=0;entryDy=0;exitX=0.693;exitY=0.938;exitDx=0;exitDy=0;exitPerimeter=0;" edge="1" parent="1" source="PrnUvY4nMbRuKB_2YOgd-15" target="PrnUvY4nMbRuKB_2YOgd-23">
          <mxGeometry width="50" height="50" relative="1" as="geometry">
            <mxPoint x="880" y="-280" as="sourcePoint" />
            <mxPoint x="850" y="160" as="targetPoint" />
          </mxGeometry>
        </mxCell>
        <mxCell id="PrnUvY4nMbRuKB_2YOgd-53" value="" style="endArrow=classic;html=1;rounded=0;exitX=0.451;exitY=1;exitDx=0;exitDy=0;exitPerimeter=0;entryX=0.478;entryY=0;entryDx=0;entryDy=0;entryPerimeter=0;" edge="1" parent="1" source="PrnUvY4nMbRuKB_2YOgd-6" target="PrnUvY4nMbRuKB_2YOgd-5">
          <mxGeometry width="50" height="50" relative="1" as="geometry">
            <mxPoint x="760" y="-230" as="sourcePoint" />
            <mxPoint x="810" y="-280" as="targetPoint" />
          </mxGeometry>
        </mxCell>
        <mxCell id="PrnUvY4nMbRuKB_2YOgd-56" value="" style="endArrow=classic;html=1;rounded=0;exitX=0.441;exitY=1;exitDx=0;exitDy=0;exitPerimeter=0;entryX=0.454;entryY=-0.021;entryDx=0;entryDy=0;entryPerimeter=0;" edge="1" parent="1" source="PrnUvY4nMbRuKB_2YOgd-24" target="PrnUvY4nMbRuKB_2YOgd-23">
          <mxGeometry width="50" height="50" relative="1" as="geometry">
            <mxPoint x="880" y="400" as="sourcePoint" />
            <mxPoint x="930" y="350" as="targetPoint" />
          </mxGeometry>
        </mxCell>
        <mxCell id="PrnUvY4nMbRuKB_2YOgd-57" value="&lt;h2&gt;Manage User Pwemission&lt;/h2&gt;" style="rounded=0;whiteSpace=wrap;html=1;fontSize=20;fillColor=#fa6800;fontColor=#000000;strokeColor=#C73500;" vertex="1" parent="1">
          <mxGeometry x="930" y="770" width="360" height="150" as="geometry" />
        </mxCell>
        <mxCell id="PrnUvY4nMbRuKB_2YOgd-58" value="&lt;h2&gt;Manage Roles Of Users&lt;/h2&gt;" style="rounded=0;whiteSpace=wrap;html=1;fontSize=20;fillColor=#fa6800;fontColor=#000000;strokeColor=#C73500;" vertex="1" parent="1">
          <mxGeometry x="467" y="770" width="360" height="150" as="geometry" />
        </mxCell>
        <mxCell id="PrnUvY4nMbRuKB_2YOgd-59" value="&lt;h2&gt;Manage System Admins&lt;/h2&gt;" style="rounded=0;whiteSpace=wrap;html=1;fontSize=20;fillColor=#fa6800;fontColor=#000000;strokeColor=#C73500;" vertex="1" parent="1">
          <mxGeometry x="50" y="770" width="310" height="150" as="geometry" />
        </mxCell>
        <mxCell id="PrnUvY4nMbRuKB_2YOgd-60" value="" style="endArrow=classic;html=1;rounded=0;entryX=0.563;entryY=0.052;entryDx=0;entryDy=0;entryPerimeter=0;" edge="1" parent="1" source="PrnUvY4nMbRuKB_2YOgd-15" target="PrnUvY4nMbRuKB_2YOgd-59">
          <mxGeometry width="50" height="50" relative="1" as="geometry">
            <mxPoint x="540" y="360" as="sourcePoint" />
            <mxPoint x="590" y="310" as="targetPoint" />
          </mxGeometry>
        </mxCell>
        <mxCell id="PrnUvY4nMbRuKB_2YOgd-61" value="" style="endArrow=classic;html=1;rounded=0;exitX=0.286;exitY=0.969;exitDx=0;exitDy=0;exitPerimeter=0;entryX=0.439;entryY=0.027;entryDx=0;entryDy=0;entryPerimeter=0;" edge="1" parent="1" source="PrnUvY4nMbRuKB_2YOgd-15" target="PrnUvY4nMbRuKB_2YOgd-58">
          <mxGeometry width="50" height="50" relative="1" as="geometry">
            <mxPoint x="540" y="290" as="sourcePoint" />
            <mxPoint x="590" y="240" as="targetPoint" />
          </mxGeometry>
        </mxCell>
        <mxCell id="PrnUvY4nMbRuKB_2YOgd-62" value="" style="endArrow=classic;html=1;rounded=0;exitX=0.53;exitY=1.01;exitDx=0;exitDy=0;exitPerimeter=0;" edge="1" parent="1" source="PrnUvY4nMbRuKB_2YOgd-15">
          <mxGeometry width="50" height="50" relative="1" as="geometry">
            <mxPoint x="830" y="-280" as="sourcePoint" />
            <mxPoint x="1120" y="760" as="targetPoint" />
          </mxGeometry>
        </mxCell>
        <mxCell id="PrnUvY4nMbRuKB_2YOgd-63" value="&lt;h2&gt;Manage Timetable Details&lt;/h2&gt;" style="rounded=0;whiteSpace=wrap;html=1;fontSize=20;align=center;fillColor=#fa6800;fontColor=#000000;strokeColor=#C73500;" vertex="1" parent="1">
          <mxGeometry x="1280" y="-960" width="340" height="160" as="geometry" />
        </mxCell>
        <mxCell id="PrnUvY4nMbRuKB_2YOgd-64" value="" style="endArrow=classic;html=1;rounded=0;" edge="1" parent="1">
          <mxGeometry width="50" height="50" relative="1" as="geometry">
            <mxPoint x="330" y="-770" as="sourcePoint" />
            <mxPoint x="439" y="-770" as="targetPoint" />
          </mxGeometry>
        </mxCell>
        <mxCell id="PrnUvY4nMbRuKB_2YOgd-65" value="" style="endArrow=classic;html=1;rounded=0;entryX=0.02;entryY=0.599;entryDx=0;entryDy=0;entryPerimeter=0;exitX=0.886;exitY=0.153;exitDx=0;exitDy=0;exitPerimeter=0;" edge="1" parent="1" source="PrnUvY4nMbRuKB_2YOgd-14" target="PrnUvY4nMbRuKB_2YOgd-12">
          <mxGeometry width="50" height="50" relative="1" as="geometry">
            <mxPoint x="620" y="-473" as="sourcePoint" />
            <mxPoint x="771" y="-790" as="targetPoint" />
          </mxGeometry>
        </mxCell>
        <mxCell id="PrnUvY4nMbRuKB_2YOgd-66" value="" style="endArrow=classic;html=1;rounded=0;" edge="1" parent="1">
          <mxGeometry width="50" height="50" relative="1" as="geometry">
            <mxPoint x="545" y="-637" as="sourcePoint" />
            <mxPoint x="545" y="-500" as="targetPoint" />
          </mxGeometry>
        </mxCell>
        <mxCell id="PrnUvY4nMbRuKB_2YOgd-67" value="&lt;h2&gt;Send Email to User&lt;/h2&gt;" style="ellipse;whiteSpace=wrap;html=1;aspect=fixed;fontSize=20;fillColor=#fa6800;fontColor=#000000;strokeColor=#C73500;" vertex="1" parent="1">
          <mxGeometry x="40" y="40" width="275" height="275" as="geometry" />
        </mxCell>
        <mxCell id="PrnUvY4nMbRuKB_2YOgd-68" value="" style="endArrow=classic;html=1;rounded=0;exitX=0.552;exitY=1.032;exitDx=0;exitDy=0;exitPerimeter=0;entryX=0.412;entryY=0.003;entryDx=0;entryDy=0;entryPerimeter=0;" edge="1" parent="1" source="PrnUvY4nMbRuKB_2YOgd-13" target="PrnUvY4nMbRuKB_2YOgd-67">
          <mxGeometry width="50" height="50" relative="1" as="geometry">
            <mxPoint x="590" y="40" as="sourcePoint" />
            <mxPoint x="640" y="-10" as="targetPoint" />
          </mxGeometry>
        </mxCell>
        <mxCell id="PrnUvY4nMbRuKB_2YOgd-9" value="&lt;h2&gt;Student Information System&lt;/h2&gt;" style="rounded=0;whiteSpace=wrap;html=1;align=center;fontSize=33;labelBackgroundColor=light-dark(default, #a18579);labelBorderColor=none;fillColor=#fa6800;fontColor=#000000;strokeColor=#C73500;fontStyle=0" vertex="1" parent="1">
          <mxGeometry x="320" y="-1130" width="960" height="150" as="geometry" />
        </mxCell>
      </root>
    </mxGraphModel>
  </diagram>
</mxfile>
